<?xml version="1.0" encoding="utf-8"?><svg viewBox="0 0 800 800" xmlns="http://www.w3.org/2000/svg" xmlns:xlink="http://www.w3.org/1999/xlink"><style>:root>svg{display:none}:root>svg:target{display:block}</style><svg viewBox="0 0 24 24" id="Facebook-social" xmlns="http://www.w3.org/2000/svg"><path d="M17.563 1.005 14.786 1c-3.12 0-5.137 2.125-5.137 5.414v2.497H6.857c-.242 0-.437.2-.437.448v3.617c0 .248.196.449.437.449h2.792v9.126c0 .248.195.449.437.449h3.643a.443.443 0 0 0 .437-.449v-9.126h3.265c.241 0 .436-.2.436-.449l.002-3.617a.456.456 0 0 0-.128-.317.431.431 0 0 0-.31-.131h-3.265V6.794c0-1.017.236-1.533 1.525-1.533h1.871a.444.444 0 0 0 .437-.45V1.454a.443.443 0 0 0-.436-.448z"/></svg><svg fill="none" viewBox="0 0 24 24" id="arrow-up" xmlns="http://www.w3.org/2000/svg"><path fill-rule="evenodd" clip-rule="evenodd" d="M4.293 15.707a1 1 0 0 1 0-1.414l7-7a1 1 0 0 1 1.414 0l7 7a1 1 0 0 1-1.414 1.414L12 9.414l-6.293 6.293a1 1 0 0 1-1.414 0z" fill="#fff"/></svg><svg viewBox="0 0 24 24" fill="none" id="bluetooth-svgrepo-com" xmlns="http://www.w3.org/2000/svg"><path d="m8 7.8 4 4.2m0 0-4 4.2m4-4.2V5l4 3.063L12 12zm0 0 4 3.938L12 19v-7z" stroke="#464455" stroke-linecap="round" stroke-linejoin="round"/></svg><svg viewBox="0 0 24 24" id="gudok" xmlns="http://www.w3.org/2000/svg"><path d="M11.843 3.987 7.093 9H4.5A1.5 1.5 0 0 0 3 10.5v3A1.5 1.5 0 0 0 4.5 15h2.593l4.75 5.013a1.25 1.25 0 0 0 2.157-.86V4.847a1.25 1.25 0 0 0-2.157-.86zM5 13v-2h2.953L12 6.729V17.27L7.953 13H5zm15.071 6.07a1 1 0 1 1-1.414-1.413A7.97 7.97 0 0 0 21 12a7.97 7.97 0 0 0-2.343-5.656 1 1 0 1 1 1.415-1.415A9.97 9.97 0 0 1 23 12a9.97 9.97 0 0 1-2.929 7.072zm-3.673-3.269a1 1 0 0 0 1.4-.198A5.978 5.978 0 0 0 19 12a5.977 5.977 0 0 0-1.197-3.596 1 1 0 0 0-1.6 1.2c.515.686.797 1.518.797 2.396 0 .88-.284 1.713-.8 2.401a1 1 0 0 0 .198 1.4z"/></svg><svg fill="none" viewBox="0 0 16 14" id="heart-footer" xmlns="http://www.w3.org/2000/svg"><path fill-rule="evenodd" clip-rule="evenodd" d="M8 12.271C4.932 10.525 3.222 8.79 2.395 7.284c-.846-1.542-.772-2.84-.303-3.761.966-1.894 3.71-2.5 5.383-.384L8 3.8l.523-.661c1.673-2.116 4.418-1.51 5.383.384.47.921.544 2.22-.303 3.76-.826 1.507-2.537 3.242-5.603 4.988zM8 1.737C5.645-.498 2.175.426.904 2.917.208 4.285.2 6.052 1.228 7.925c1.019 1.857 3.052 3.817 6.449 5.694l.322.179.323-.179c3.397-1.877 5.43-3.837 6.45-5.694 1.028-1.873 1.018-3.64.321-5.008C13.823.425 10.353-.498 8 1.737z" fill="#FF5A30"/></svg></svg>